inDegrees=no
num_controls=7
num_derivatives=13
num_iterations=147
num_multipliers=7
num_parameters=0
num_slacks=7
num_states=26
objective=5.537101
objective_accelerations=0.469736
objective_balance=0.016044
objective_effort=0.401888
objective_height=4.526050
objective_ligament=0.123382
solver_duration=1233.460232
status=Solve_Succeeded
success=true
DataType=double
version=3
OpenSimVersion=4.4-2022-07-23-0e9fedc
endheader
time	/jointset/ground_pelvis/pelvis_tilt/value	/jointset/ground_pelvis/pelvis_tx/value	/jointset/ground_pelvis/pelvis_ty/value	/jointset/hip_r/hip_flexion_r/value	/jointset/hip_r/hip_adduction_r/value	/jointset/hip_r/hip_rotation_r/value	/jointset/back/lumbar_extension/value	/jointset/patellofemoral_r/patellar_flexion_r/value	/jointset/knee_r/knee_flexion_r/value	/jointset/knee_r/knee_adduction_r/value	/jointset/knee_r/knee_rotation_r/value	/jointset/ankle_r/ankle_angle_r/value	/jointset/subtalar_r/subtalar_angle_r/value	/jointset/ground_pelvis/pelvis_tilt/speed	/jointset/ground_pelvis/pelvis_tx/speed	/jointset/ground_pelvis/pelvis_ty/speed	/jointset/hip_r/hip_flexion_r/speed	/jointset/hip_r/hip_adduction_r/speed	/jointset/hip_r/hip_rotation_r/speed	/jointset/back/lumbar_extension/speed	/jointset/patellofemoral_r/patellar_flexion_r/speed	/jointset/knee_r/knee_flexion_r/speed	/jointset/knee_r/knee_adduction_r/speed	/jointset/knee_r/knee_rotation_r/speed	/jointset/ankle_r/ankle_angle_r/speed	/jointset/subtalar_r/subtalar_angle_r/speed	/forceset/tau_hip_flexion_r	/forceset/tau_hip_adduction_r	/forceset/tau_hip_rotation_r	/forceset/tau_knee_flexion_r	/forceset/tau_ankle_angle_r	/forceset/tau_subtalar_angle_r	/forceset/tau_lumbar_extension	lambda_cid13_p0	lambda_cid14_p0	lambda_cid14_p1	lambda_cid14_p2	lambda_cid14_p3	lambda_cid14_p4	lambda_cid14_p5	/jointset/ground_pelvis/pelvis_tilt/accel	/jointset/ground_pelvis/pelvis_tx/accel	/jointset/ground_pelvis/pelvis_ty/accel	/jointset/hip_r/hip_flexion_r/accel	/jointset/hip_r/hip_adduction_r/accel	/jointset/hip_r/hip_rotation_r/accel	/jointset/back/lumbar_extension/accel	/jointset/patellofemoral_r/patellar_flexion_r/accel	/jointset/knee_r/knee_flexion_r/accel	/jointset/knee_r/knee_adduction_r/accel	/jointset/knee_r/knee_rotation_r/accel	/jointset/ankle_r/ankle_angle_r/accel	/jointset/subtalar_r/subtalar_angle_r/accel	gamma_cid13_p0	gamma_cid14_p0	gamma_cid14_p1	gamma_cid14_p2	gamma_cid14_p3	gamma_cid14_p4	gamma_cid14_p5
1.5	-0.03998630079230448	0.0569683350734725	0.8404334142207813	0.680381715377613	-0.2502043786477913	-0.07901104200542508	-0.6111178679071749	0.8664895845458745	0.8664895845458969	0.06319798847206899	0.1741473561160292	0.2997177279143449	0.09761682640678224	0.3545263142001989	0.1831477821840278	0.4038448101830912	-1.669613648858179	0.05706661978854534	-0.4789441165030711	0.8013886383958123	-1.765133314197865	-1.765133314197864	0.06318450395207706	0.004177676640900684	-0.5174486012958812	-0.08427238458493233	-0.1319247349497749	-0.003271707064330624	0.03194065138494434	-0.2948099625905317	-0.01086911820813019	-0.01153585562803186	0.1948771097062546	-12.61726741697055	-46.33344658135928	-11.23827622612225	0.06118787310686219	1.153029717740516	-636.7110552041611	62.85680906512912	-0.02995633134583166	0.3848767230910884	-0.3886676036739375	-0.7371812603068262	0.1479112334615622	0.01833954699676683	1.519020602226247	-1.254182585259722	-1.254182585259751	0.6607399445474049	-0.01871914878039144	-0.543332756200961	0.07716441580847973	7.045432979456384e-08	1.711765504478343e-08	-7.947462222491735e-07	3.377766161946788e-07	7.381294833008494e-08	1.136723420071899e-07	-5.789632027522644e-07
1.51	-0.03644284502553004	0.05881884359545884	0.8444516028432923	0.6636506427556015	-0.249626896153033	-0.08379930129702559	-0.6030293330169737	0.8487778854300936	0.8487778854301212	0.06386378457967148	0.1741890017994215	0.2945166472612143	0.09677723214670148	0.3541173928582868	0.1869298403026236	0.3997087686300359	-1.676373563934344	0.05841163153536635	-0.4786504273126697	0.8162036278170968	-1.776952118824887	-1.776952118824885	0.07000027398213741	0.004142017951232439	-0.52269028610247	-0.08365117174311922	-0.1256524812128659	-0.00438165636481353	0.0311464792780266	-0.2915050333932089	-0.008428780045121993	-0.01218029847225147	0.189005613569791	-13.54071997184847	-45.34783694407786	-11.25800422915993	-0.03570451183261696	0.959848289595308	-632.8931614711306	62.47119478473056	-0.05347441780294977	0.3712712647067632	-0.4386680577775131	-0.6112962410504077	0.1250642491915976	0.04359453380864829	1.44553133795542	-1.107587319345803	-1.10758731934574	0.6957262262880218	0.002655881182129768	-0.5029784496003563	0.05382100232464213	7.819959015854294e-08	2.688235403078887e-08	-7.93116298214353e-07	4.009758342892227e-07	6.864003718560152e-08	1.251967061372369e-07	-5.897754403638156e-07
1.52	-0.03290490134861061	0.06070645288032366	0.8484259119249415	0.6468587910608746	-0.2490365099200259	-0.08858288151097389	-0.5947960895873835	0.8309556266844578	0.8309556266844922	0.06459848452639468	0.1742300199179583	0.2892654713386752	0.09594369427183017	0.3534238962288093	0.1905679347597216	0.3950689020107386	-1.681769463401675	0.05964736743815769	-0.4780083009723944	0.8303303462734168	-1.787245240168805	-1.787245240168803	0.07696527177430536	0.004052163671252494	-0.5274676551775589	-0.08306110754302942	-0.1193802274759502	-0.005491605665301102	0.03035230717106086	-0.2882001041958846	-0.005988441882114354	-0.01282474131647735	0.1831341174333345	-14.46040323331128	-44.36526164824481	-11.27557408109341	-0.1360136222497356	0.7619274167469041	-629.120890036033	62.12391417678793	-0.08687138885891457	0.3560839907915144	-0.4894326169223321	-0.4643781385400093	0.1260560646556265	0.08802697697151717	1.381366409233386	-0.94904592863899	-0.9490459286389746	0.6905854969689141	-0.02955826684271232	-0.4504696099009663	0.07093468746381561	8.552986338233603e-08	3.697540462811847e-08	-7.917343938565015e-07	4.629149566976734e-07	6.299753637957926e-08	1.392337445612459e-07	-6.029035850583982e-07
1.53	-0.02937529136661042	0.06262967705436501	0.8523513633417632	0.6300197834762395	-0.2484343635131473	-0.09335824696966973	-0.5864251802765313	0.8130381018490274	0.8130381018490584	0.06540366290910327	0.1742698180550458	0.2839688476965663	0.09511583710895954	0.3524494460000632	0.1940478429970197	0.3899422663743679	-1.685797339277092	0.06076269201466725	-0.4770148601168603	0.8437241366960224	-1.795995484109909	-1.79599548410989	0.08408392480722954	0.00389871249508287	-0.5317757753544758	-0.082514501746544	-0.1130517239767801	-0.006677417998949014	0.02955073778941323	-0.285051507063598	-0.003460498296564927	-0.01352789227810107	0.1772190112943772	-15.37412571621938	-43.37068372205951	-11.3203715895407	-0.2276037955830946	0.5814058010317407	-625.5167781492627	61.76707615000335	-0.1100255828359264	0.3395963961231645	-0.5361133069687608	-0.3367789883021211	0.1014081833298914	0.1126209940928424	1.299278478613102	-0.7983964271946083	-0.7983964271921532	0.7244345648343555	-0.00946516955533897	-0.4087663404100128	0.04583860180509309	9.241921276968147e-08	4.741732881247996e-08	-7.906160104054293e-07	5.2351522743965e-07	5.685609655817201e-08	1.559404994225896e-07	-6.184923810287018e-07
1.54	-0.02585688463548686	0.0645868307419641	0.8562231815482262	0.6131475397976001	-0.2478216363546676	-0.09812215434896002	-0.5779241544374848	0.7950409980141121	0.7950409980141466	0.06628041369381669	0.1743078363550626	0.2786315862289232	0.0942933090192665	0.3511832460531754	0.197353837471271	0.3843422599390245	-1.688416682202894	0.06176351775842703	-0.4757166850913863	0.8563536519121865	-1.803161040064956	-1.80316104006492	0.09127975217536201	0.00369619625686339	-0.5355952202843107	-0.08199529290749064	-0.1067232204776037	-0.0078632303325943	0.02874916840777138	-0.2819029099313094	-0.0009325547110140577	-0.01423104323972039	0.1713039051554253	-16.28003518354342	-42.37838373554941	-11.36288280420263	-0.3226262834956449	0.3946167859469216	-621.9478602832298	61.45076295435635	-0.1452213324872524	0.3213012381821534	-0.5841067767168312	-0.1826715486169251	0.1031562981056662	0.1489738109594828	1.228511367945041	-0.6321083314278187	-0.6321083314277886	0.7060203640105617	-0.03937127925266507	-0.3527345604845467	0.06545529597740153	9.928157260069906e-08	5.762509311986731e-08	-7.964332925781847e-07	5.829806449234428e-07	5.142748322031578e-08	1.744267393587999e-07	-6.404024854169823e-07
1.55	-0.02235255578829433	0.06657613249210852	0.8600367050689796	0.5962560928527623	-0.2471995350955386	-0.1028715603969615	-0.5693008375100346	0.7769801815156856	0.7769801815157105	0.06722957798670164	0.1743435973658866	0.2732585728155932	0.09347575711078569	0.3496328370491332	0.2004728576694585	0.3782891685121554	-1.689630994241357	0.06263617256675885	-0.4741237189263386	0.8681694586633446	-1.808727900957779	-1.808727900957772	0.0985544945240887	0.003451826939762306	-0.5389217157746949	-0.08151906242481373	-0.1003365315005883	-0.009111280607862506	0.02794385600168693	-0.2789829545992427	0.001750530421061566	-0.01502479955324073	0.1653571230913372	-17.17664563694372	-41.35794034421635	-11.44666081906484	-0.4032507885652141	0.2099904175439267	-618.6050646752437	61.10572314420908	-0.1673978316131735	0.3021630295165765	-0.6268604061077084	-0.0545457592163829	0.07626947024097828	0.1707240679459141	1.137074091513182	-0.4778431503997463	-0.4778431504041608	0.7383118218392847	-0.01748779852612541	-0.3097213530546606	0.03806179536395628	1.061128357689911e-07	6.756306452552358e-08	-8.10241667752306e-07	6.411385140880239e-07	4.68201699613335e-08	1.949632555769217e-07	-6.695958364607575e-07
1.56	-0.01886522046059128	0.06859561656801061	0.8637875076593772	0.5793597558419903	-0.2465693174087187	-0.1076037835735776	-0.5605635707625097	0.7588719227718898	0.7588719227719104	0.06825151183338335	0.1743768110754216	0.2678548715854112	0.09266283848132172	0.3477845421550695	0.2033903026228126	0.3717980738678509	-1.689394695390036	0.06338680329685127	-0.47228011081455	0.8791436159269823	-1.812649489138213	-1.812649489138235	0.1058336629342388	0.003186735999169312	-0.5417327836546513	-0.08106863710409144	-0.09394984252356461	-0.0103593308831257	0.0271385435955973	-0.2760629992671739	0.004433615553139316	-0.01581855586675276	0.1594103410272558	-18.06285987269607	-40.33863014011576	-11.52776840889138	-0.4875786878408853	0.01671748204830545	-615.2818054437815	60.80333447385863	-0.2047985104915622	0.2809861892154453	-0.6717074202038933	0.1074506293401357	0.07875148245778583	0.1991022003076702	1.060181470440935	-0.3030537889501043	-0.3030537889500937	0.7069055762952379	-0.04351560395102899	-0.2496490383989819	0.06029426358647388	1.124864572928414e-07	7.697004705568471e-08	-8.267938360450713e-07	6.952891976145981e-07	4.260040834671195e-08	2.167601019645224e-07	-7.00524394927354e-07
1.57	-0.01539780598104086	0.07064322641089786	0.8674712921245418	0.5624729658126939	-0.2459322483837381	-0.1123162603767452	-0.5517209508340981	0.7407326769275996	0.7407326769276207	0.06934633886870802	0.1744072177960174	0.262425632700063	0.09185424126925208	0.3456469330753294	0.2060935811883504	0.3648920917344715	-1.687713513676359	0.06400613489195116	-0.470173871400784	0.8892293593468156	-1.814915079434333	-1.814915079434309	0.1131248628118294	0.002887663641661836	-0.5440245962231853	-0.08065316969813449	-0.08752781858749163	-0.01175444403899227	0.02633452344352101	-0.27340577993886	0.007248477956177022	-0.0166511928564859	0.1534622527823588	-18.93798282619097	-39.29961058347214	-11.62361270213659	-0.568069388528289	-0.1718199880376322	-612.2520725421215	60.53884712907367	-0.225948576781358	0.2592933181538623	-0.7100020066656547	0.2359315261142003	0.05043642299114342	0.2227518642702461	0.9601192164750189	-0.1456459327460529	-0.145645932739011	0.7390970759124755	-0.02401687673386577	-0.2053624100103885	0.03177446206559242	1.182880267611395e-07	8.571329349147692e-08	-8.467757457361414e-07	7.444308990936635e-07	3.886508628754131e-08	2.401323610639717e-07	-7.336219626724772e-07
1.58	-0.01195330888630055	0.07271672796502658	0.8710840250890203	0.5456104835172818	-0.2452896035578176	-0.1170064013753011	-0.5427820037837437	0.7225793083237834	0.7225793083238123	0.07051385187929432	0.1744344510280234	0.256976192680243	0.09104971902783489	0.3432010651929421	0.2085686448711111	0.3575877737306555	-1.684533148613377	0.06450196348525072	-0.4678129498926499	0.8984090403154692	-1.815474041042574	-1.815474041042503	0.1203708579862806	0.002552038280823234	-0.5457730105489104	-0.08025364297356526	-0.08110579465141067	-0.01314955719484796	0.02553050329145308	-0.2707485606105443	0.01006334035921862	-0.0174838298462019	0.1475141645374671	-19.8017227179122	-38.26028595636078	-11.71662248910938	-0.6521895230266747	-0.3720852406117203	-609.2215107423409	60.31762138859686	-0.2664502710210052	0.2353432126600147	-0.7513745942912017	0.4072872992010458	0.05405088209771956	0.2500386191812773	0.8789689802049926	0.03827194862598376	0.03827194862598297	0.6978646356673424	-0.05082620461723782	-0.1409693898372139	0.05710612730892683	1.239602095876463e-07	9.34110638372415e-08	-8.68912319852309e-07	7.908149773439826e-07	3.634210591641841e-08	2.611080326206095e-07	-7.683769481569869e-07
1.59	-0.00853473246866117	0.07481379617399669	0.8746218163218373	0.5287871957638992	-0.2446426789195477	-0.1216717009128318	-0.5337559860384052	0.7044288679049766	0.7044288679049631	0.07175365032208338	0.1744581993089724	0.2515119644733198	0.09024903233319492	0.3404667332774846	0.2108022775530278	0.3499120896631119	-1.679874728112202	0.06486033726953104	-0.4652126441617601	0.9066275669359034	-1.814323419005491	-1.81432341900547	0.1275733727871557	0.002197198779352524	-0.5469801398302392	-0.0798872873791478	-0.07468846031802805	-0.01461391812852908	0.02472652923564605	-0.2683468678871184	0.01295142305526777	-0.01839839233736948	0.1416025624391387	-20.65420527193023	-37.22766419386185	-11.85078980147624	-0.7247171337689245	-0.543121525606426	-606.5556975953926	60.08161484745344	-0.2840400588513342	0.2109723787360732	-0.7843649097311652	0.5325818633522099	0.02338536309374312	0.270347693677065	0.7682532305155072	0.1970243418919444	0.1970243418844302	0.7290270828021232	-0.02773148244809577	-0.09668424781841981	0.02581984468655084	1.294567962574363e-07	9.968997377511151e-08	-8.93973081402537e-07	8.334565669267179e-07	3.54644464076459e-08	2.788311925120031e-07	-8.053812862878065e-07
